<svg width="439" height="158" viewBox="0 0 439 158" fill="none" xmlns="http://www.w3.org/2000/svg">
<path d="M15.774 120.337C24.1395 120.337 33.2849 109.863 33.2849 101.591C33.2849 97.3782 30.7681 92.8053 22.4026 92.8053C9.46439 92.8053 1.2761 103.943 1.2761 114.93C1.2761 127.927 12.9382 135.365 28.0919 135.365C47.0206 135.365 59.3208 123.544 68.6257 112.235C76.5127 102.615 83.1413 92.4827 88.6533 85.2154L88.4938 85.0446C79.6674 91.7996 65.7899 99.2187 56.0065 99.2187C46.2231 99.2187 41.3314 91.9514 41.3314 83.0144V81.3256C38.8146 82.0087 36.1206 82.3313 33.7634 82.3313C22.5621 82.3313 13.2572 74.8932 13.2572 60.3776C13.2572 32.5228 47.641 20.3601 58.3637 20.3601C59.1613 20.3601 59.1613 21.7073 58.3637 21.7073C46.2231 21.7073 16.5715 41.1183 16.5715 64.0966C16.5715 74.9122 23.0406 81.1548 33.6039 81.1548C36.1206 81.1548 38.8146 80.8133 41.4909 80.1492C44.8052 51.099 96.2213 10.5881 118.624 10.5881C127.291 10.5881 132.023 16.66 132.023 24.2689C132.023 25.1037 131.863 25.7868 131.863 26.6407C138.492 29.1643 142.586 35.2552 142.586 43.3573C142.586 57.873 129.648 67.5121 122.08 67.5121C121.601 67.5121 121.3 67.1705 121.3 66.829C121.3 66.4874 121.619 65.9941 122.08 65.9941C129.329 65.9941 141.328 56.8673 141.328 43.5281C141.328 36.6024 138.013 30.3597 131.704 27.9879C128.709 44.363 106.944 65.9751 92.5879 65.9751C87.8557 65.9751 85.339 63.6033 85.339 59.5617C85.339 56.5258 86.1188 53.319 87.6962 50.2831L87.5367 50.1123C77.133 60.5863 61.04 74.267 46.2231 79.8266C45.2837 82.6918 44.8052 85.2344 44.8052 87.4165C44.8052 91.9704 47.0206 97.8905 55.847 97.8905C67.0483 97.8905 83.6021 88.4411 91.6486 80.6615C96.8593 75.766 100.634 70.8706 101.592 70.8706C101.911 70.8706 102.23 71.0414 102.23 71.5537C102.23 71.8952 102.07 71.8952 101.911 72.066C95.1224 77.4738 87.0936 100.604 71.0006 117.662C60.5969 128.478 46.8611 136.751 29.0489 136.751C11.2367 136.751 0 128.61 0 114.93C0 103.279 8.52504 91.4581 22.0836 91.4581C32.3278 91.4581 36.9005 98.2131 36.9005 104.968C36.9005 114.588 27.4361 121.685 15.455 121.685C12.3002 121.685 12.1406 121.172 12.1406 120.831C12.1406 120.319 12.4597 119.996 12.9205 119.996C13.3813 119.996 14.3384 120.337 15.7563 120.337H15.774ZM89.4154 46.7159C96.6644 35.2362 111.978 25.4453 124.739 25.4453C126.794 25.4453 128.673 25.7868 130.57 26.2802C130.57 25.5971 130.729 24.933 130.729 24.0791C130.729 17.6657 126.936 11.9164 118.429 11.9164C95.5655 11.9164 56.1305 53.9642 46.8257 78.2707C62.2806 72.1988 77.8951 57.3227 89.4154 46.6969V46.7159ZM130.428 27.4566C128.85 27.1151 127.113 26.7735 125.217 26.7735C109.443 26.7735 89.5749 43.6609 89.5749 57.835C89.5749 60.5294 90.5143 64.4192 94.3071 64.4192C105.827 64.4192 127.592 43.4902 130.428 27.4376V27.4566Z" fill="black"/>
<path d="M105.189 111.135L111.304 80.5479C112.633 74.0016 113.041 70.0169 107.422 70.0169L107.67 68.9543H126.83L126.582 70.0169C120.963 70.0169 119.9 74.0016 118.57 80.5479L112.544 110.869C109.904 124.038 113.377 131.381 123.852 131.381C132.696 131.381 139.378 125.537 141.859 113.26L147.389 85.5002C149.126 76.8288 148.878 70.0359 144.092 70.0359L144.341 68.9733H159.211L158.962 70.0359C154.177 70.0359 151.944 76.8478 150.207 85.5002L144.677 113.26C141.877 127.32 133.866 134.398 122.381 134.398C108.096 134.398 102.141 126.258 105.207 111.135H105.189Z" fill="black"/>
<path d="M161.356 68.9543H201.748L200.259 82.2176H199.266C196.874 73.0149 194.889 71.421 185.885 71.421H174.081L168.711 98.4788H177.962C185.389 98.4788 187.055 96.088 189.607 90.4336H190.599L186.807 109.807H185.814C185.406 104.418 184.91 101.135 177.466 101.135H168.215L163.181 126.694C162.685 129.351 163.092 130.85 165.662 130.85H175.41C184.166 130.85 187.055 129.426 194.162 118.478H195.154L190.28 133.335H148.648L148.807 132.273C154.426 132.273 155.578 128.288 156.907 121.742L165.007 80.5288C166.336 73.9826 166.832 69.9979 161.214 69.9979L161.373 68.9353L161.356 68.9543Z" fill="black"/>
<path d="M194.729 133.335L194.888 132.273C200.507 132.273 201.499 128.649 202.811 122.102L211.159 80.1873C212.488 73.4703 212.736 70.0169 207.277 70.0169L207.437 68.9543H230.389C246.499 68.9543 255.326 78.3278 255.326 93.5455C255.326 115.215 240.792 133.335 218.744 133.335H194.711H194.729ZM247.581 92.0465C247.581 77.8914 241.147 71.44 229.91 71.44H223.459C221.562 71.44 219.985 72.5026 219.577 74.6278L209.493 125.214C208.748 128.668 209.989 130.869 218.337 130.869C238.081 130.869 247.581 111.23 247.581 92.0465Z" fill="black"/>
<path d="M263.372 68.9543H303.764L302.275 82.2176H301.283C298.89 73.0149 296.905 71.421 287.901 71.421H276.097L270.727 98.4788H279.979C287.405 98.4788 289.071 96.088 291.623 90.4336H292.616L288.823 109.807H287.83C287.423 104.418 286.926 101.135 279.483 101.135H270.231L265.197 126.694C264.701 129.351 265.109 130.85 267.679 130.85H277.427C286.182 130.85 289.071 129.426 296.178 118.478H297.171L292.297 133.335H250.664L250.824 132.273C256.442 132.273 257.594 128.288 258.923 121.742L267.023 80.5288C268.352 73.9826 268.848 69.9979 263.23 69.9979L263.39 68.9353L263.372 68.9543Z" fill="black"/>
<path d="M298.641 129.18L300.786 116.618H301.778C303.764 126.523 309.045 131.836 316.471 131.836C323.897 131.836 329.604 126.182 329.604 118.668C329.604 111.951 325.138 108.763 319.449 103.81L316.471 101.344C313.246 98.5165 308.124 93.3934 308.124 85.3291C308.124 75.2536 316.968 67.9104 327.194 67.9104C332.476 67.9104 337.686 69.8648 341.887 72.9577L339.813 83.3937L338.821 83.2988C337.172 76.0505 332.298 70.472 325.776 70.472C319.254 70.472 313.884 75.2536 313.884 82.407C313.884 88.7635 318.102 92.141 321.558 95.0441L324.536 97.5108C329.906 102.103 335.436 107.245 335.436 115.556C335.436 126.428 325.688 134.398 314.539 134.398C308.513 134.398 302.558 132.178 298.606 129.18H298.641Z" fill="black"/>
<path d="M388.245 106.533L389.673 100.042H380.845C370.2 100.042 362.887 101.6 358.906 104.715C354.838 107.831 352.805 111.596 352.805 116.009C352.805 119.211 353.93 121.808 356.18 123.798C358.43 125.702 361.416 126.654 365.137 126.654C370.417 126.654 375.306 124.621 379.807 120.553C384.22 116.485 387.033 111.812 388.245 106.533ZM342.419 117.048C342.419 110.47 345.275 104.845 350.987 100.172C356.872 95.4983 367.085 93.1616 381.624 93.1616H391.101L391.36 91.8634C392.485 86.238 392.009 81.9541 389.932 79.0115C387.855 75.9825 384.35 74.4679 379.417 74.4679C376.215 74.4679 372.97 75.5498 369.681 77.7134C366.479 79.877 363.709 82.8628 361.373 86.6707L353.064 82.5166C359.469 71.9582 368.556 66.6789 380.326 66.6789C387.942 66.6789 393.74 69.0589 397.721 73.8189C401.702 78.5788 402.871 85.1129 401.226 93.4212L392.918 132.496H382.922L385.389 120.942C379.244 129.943 371.498 134.443 362.151 134.443C356.266 134.443 351.507 132.842 347.872 129.64C344.237 126.351 342.419 122.154 342.419 117.048Z" fill="#2942F2"/>
<path d="M414.128 133.26C413.037 133.26 412.197 132.84 411.609 132C411.021 131.16 410.727 130.048 410.727 128.662C410.727 126.563 411.504 123.036 413.058 118.081L423.261 82.8749C423.932 80.5236 424.268 78.7602 424.268 77.5845C424.268 76.5349 423.974 76.01 423.386 76.01C422.589 76.01 421.308 76.9547 419.545 78.8442C417.781 80.7336 414.8 84.3025 410.601 89.5509L409.972 89.0471C414.968 81.4054 418.789 76.115 421.434 73.1759C424.121 70.2368 426.494 68.7672 428.551 68.7672C430.776 68.7672 431.889 70.3207 431.889 73.4278C431.889 75.5272 431.112 79.0541 429.559 84.0086L419.419 119.215C418.705 121.692 418.348 123.456 418.348 124.505C418.348 125.555 418.663 126.08 419.293 126.08C420.048 126.08 421.308 125.135 423.072 123.246C424.835 121.356 427.774 117.787 431.889 112.539L432.708 113.043C427.711 120.642 423.869 125.912 421.182 128.851C418.537 131.79 416.186 133.26 414.128 133.26ZM429.496 48.9282C428.614 48.0045 428.173 46.8079 428.173 45.3383C428.173 43.8688 428.677 42.6092 429.685 41.5595C430.734 40.4678 431.994 39.922 433.463 39.922C434.849 39.922 435.983 40.3838 436.864 41.3076C437.788 42.1893 438.25 43.3649 438.25 44.8345C438.25 46.304 437.725 47.5847 436.675 48.6763C435.668 49.726 434.429 50.2508 432.96 50.2508C431.574 50.2508 430.419 49.81 429.496 48.9282Z" fill="#2942F2"/>
</svg>
